<svg xmlns="http://www.w3.org/2000/svg" version="1.1" xmlns:xlink="http://www.w3.org/1999/xlink" xmlns:svgjs="http://svgjs.dev/svgjs" width="100%" height="100%" viewBox="0 0 1000 600"><rect width="1000" height="600" x="0" y="0" fill="#c73659"/><g><circle r="166.66666666666666" cx="430.42911783854163" cy="452.65148592132095" fill="white" transform="matrix(0.4739110056330218,0,0,0.4739110056330218,0,85.4834744948739)"/><path d="M381.7981868137481 527.6514830513855L381.7981868137481 527.6514830513855Q377.5124726577854 527.6514830513855 373.22675850182276 527.6514830513855Q368.94104434586006 527.6514830513855 364.65533018989737 527.6514830513855L364.65533018989737 527.6514830513855Q364.0005683049586 527.6514830513855 363.4648540354633 527.3241021089161Q362.92913976596793 526.9967211664468 362.6017588234986 526.4610068969514Q362.27437788102924 525.9252926274561 362.27437788102924 525.3002926463782L362.27437788102924 525.3002926463782Q362.27437788102924 509.4371978885441 362.27437788102924 493.6931507461535Q362.27437788102924 477.94910360376275 362.27437788102924 462.08600884592863Q362.27437788102924 446.22291408809457 362.27437788102924 430.3598193302605Q362.27437788102924 414.4967245724264 362.27437788102924 398.8717250454791L362.27437788102924 398.8717250454791Q362.27437788102924 393.51458235052576 362.27437788102924 388.24672536715497Q362.27437788102924 383.008630287645 362.27437788102924 377.6514875926917L362.27437788102924 377.6514875926917Q365.2803301709753 377.6514875926917 370.31009192345925 377.6514875926917Q375.3696155798041 377.6514875926917 380.1910440052621 377.6514875926917Q385.0124724307201 377.6514875926917 387.7803294897794 377.6514875926917L387.7803294897794 377.6514875926917Q389.060091355796 377.6514875926917 389.8339008561781 377.97886853516104Q390.57794845269945 378.3062494776304 391.11366272219476 379.05029707415173Q391.6493769916901 379.794344670673 392.274376972768 381.5205350946024L392.274376972768 381.5205350946024Q396.3517578017047 390.92529671463166 400.310091015198 400.5681535655477Q404.2981861325522 410.2110104164637 408.34580505762807 420.0919624982665Q412.4231858865648 429.94315267620857 416.5005667155015 440.1217237966199Q420.5779475444382 450.3002949170313 424.7446140849575 460.5681517490252Q428.9410425293376 470.86577048488 433.2267566853003 481.3717225477607L433.2267566853003 481.3717225477607L423.13747127647144 469.7943419458893L437.7208041682889 469.7943419458893L427.42318543243414 481.3717225477607Q431.9172329154228 470.86577048488 436.3219946868289 459.9431517679473Q440.726756458235 449.02053305101464 445.01247061419764 438.3955333726905Q449.29818477016033 427.8002955982272 453.4648513106796 417.29434353534646Q457.6315178511989 406.7883914724657 461.70889868013563 396.81815367908035Q465.78627950907236 386.8776777895558 469.65532701098306 377.6514875926917L469.65532701098306 377.6514875926917Q472.86961262795506 377.6514875926917 477.98866009202163 377.6514875926917Q483.13746945994905 377.6514875926917 488.2862788278764 377.6514875926917Q493.4350881958038 377.6514875926917 496.20294525486304 377.6514875926917L496.20294525486304 377.6514875926917Q496.8577071398018 377.6514875926917 497.3934214092971 377.97886853516104Q497.9291356787924 378.3062494776304 498.2565166212618 378.7229161316823Q498.5838975637312 379.13958278573426 498.5838975637312 380.002677997699L498.5838975637312 380.002677997699Q498.5838975637312 384.94315403860037 498.5838975637312 393.3062490234998Q498.5838975637312 401.6395821045383 498.5838975637312 412.2645817828625Q498.5838975637312 422.85981955732575 498.5838975637312 434.8538668132491Q498.5838975637312 446.8776759730333 498.5838975637312 459.19910417142603Q498.5838975637312 471.52053236981874 498.5838975637312 483.51457962574204Q498.5838975637312 495.5086268816654 498.5838975637312 506.0145789445462L498.5838975637312 506.0145789445462Q498.5838975637312 509.6455312155701 498.5838975637312 513.1871977750114Q498.5838975637312 516.7288643344529 498.5838975637312 520.3598166054768Q498.5838975637312 524.0205307803616 498.5838975637312 527.6514830513855L498.5838975637312 527.6514830513855Q493.8517548498557 527.6514830513855 489.4767549823105 527.6514830513855Q485.0719932109044 527.6514830513855 481.44104093988045 527.6514830513855L481.44104093988045 527.6514830513855Q480.7862790549417 527.6514830513855 480.2505647854464 527.3241021089161Q479.71485051595107 526.9967211664468 479.38746957348167 526.4610068969514Q479.0600886310123 525.9252926274561 479.0600886310123 525.3002926463782L479.0600886310123 525.3002926463782Q479.0600886310123 520.3598166054768 479.0600886310123 515.3300548529928Q479.0600886310123 510.30029310050884 479.0600886310123 505.3598170596074Q479.0600886310123 500.44910292256685 479.0600886310123 495.5086268816654L479.0600886310123 495.5086268816654Q479.0600886310123 488.2169604357567 479.0600886310123 481.0443416052914Q479.0600886310123 473.871722774826 479.29818386189913 466.5800563289173Q479.5065171889251 459.28838988300856 479.71485051595107 451.69910439849133Q479.923183842977 444.08005701011325 480.3696124008898 435.9252953522398Q480.7862790549417 427.8002955982272 481.3219933244371 418.7824387283891Q481.8577075939324 409.79434376241176 482.5124694788711 400.15148691149574L482.5124694788711 400.15148691149574L486.79818363483383 405.92529626050106L472.4231840700423 405.92529626050106L480.7862790549417 399.08005837250505Q476.70889822600503 408.9312485504471 472.21485074301637 419.43720061332783Q467.7208032600277 429.94315267620857 463.22675577703905 440.7467237776978Q458.70294639018954 451.5800567830479 454.3279465226443 462.08600884592863Q449.92318475123824 472.59196090880937 445.8458039223015 482.324103471308Q441.79818499722563 492.08600793766743 438.13747082234084 500.6574362495928L438.13747082234084 500.6574362495928Q434.5065185513169 500.6574362495928 430.96485199187555 500.6574362495928Q427.42318543243414 500.6574362495928 423.79223316141025 500.6574362495928L423.79223316141025 500.6574362495928Q423.13747127647144 500.6574362495928 422.5124712953936 500.3300553071234Q421.85770941045485 500.00267436465407 421.2029475255161 498.7229124986374L421.2029475255161 498.7229124986374Q418.8517571205088 492.94910314963215 415.22080484948486 484.2586272222634Q411.5600906746001 475.5681512948946 407.2743765186374 465.0919611358747Q402.9886623626747 454.586009072994 398.4053291681035 443.3360094135919Q393.79223406967145 432.0860097541899 389.060091355796 421.04434342181383Q384.35771054578134 410.0026770894377 380.2803297168446 399.94315358446977L380.2803297168446 399.94315358446977L388.43509137471807 405.92529626050106L374.50652036783936 405.92529626050106L377.92913931183733 399.496725026557Q378.79223452380205 409.3776771083598 379.41723450487996 418.36577207433714Q380.0719963898187 427.3538670403144 380.48866304387064 435.50862869818786Q380.9350916017834 443.6633903560613 381.14342492880934 451.371723456022Q381.3517582558353 459.0800565559826 381.47080587127874 466.4610087134739Q381.5600915828613 473.871722774826 381.6791391983047 481.0443416052914Q381.7981868137481 488.2169604357567 381.7981868137481 495.5086268816654L381.7981868137481 495.5086268816654Q381.7981868137481 503.42529330865204 381.7981868137481 511.46100735108206Q381.7981868137481 519.4967213935121 381.7981868137481 527.6514830513855Z " fill="#c73659" transform="matrix(0.4739110056330218,0,0,0.4739110056330218,0,85.4834744948739)"/><path d="M698.1780583634703 523.7553865890837L698.1780583634703 523.7553865890837Q694.2819543708571 523.7553865890837 690.3858503782436 523.7553865890837Q686.4897463856303 523.7553865890837 682.5936423930169 523.7553865890837L682.5936423930169 523.7553865890837Q681.9984042830343 523.7553865890837 681.5113912839577 523.4577675340925Q681.024378284881 523.1601484791012 680.7267592298897 522.6731354800245Q680.4291401748984 522.1861224809478 680.4291401748984 521.6179406486917L680.4291401748984 521.6179406486917Q680.4291401748984 507.196944620477 680.4291401748984 492.8841737031682Q680.4291401748984 478.5714027858594 680.4291401748984 464.15040675764465Q680.4291401748984 449.7294107294299 680.4291401748984 435.3084147012152Q680.4291401748984 420.88741867300047 680.4291401748984 406.6828728665976L680.4291401748984 406.6828728665976Q680.4291401748984 401.8127428758309 680.4291401748984 397.02378171824364Q680.4291401748984 392.2618768383829 680.4291401748984 387.39174684761616L680.4291401748984 387.39174684761616Q683.1618242252731 387.39174684761616 687.7343351610484 387.39174684761616Q692.3339023745503 387.39174684761616 696.7170193662404 387.39174684761616Q701.1001363579304 387.39174684761616 703.6163701864931 387.39174684761616L703.6163701864931 387.39174684761616Q704.7797901287319 387.39174684761616 705.4832533496204 387.6893659026075Q706.1596602927824 387.9869849575988 706.6466732918592 388.6633919007608Q707.1336862909358 389.3397988439229 707.701868123192 390.90906295205883L707.701868123192 390.90906295205883Q711.4085781717199 399.458846713627 715.007063109342 408.22508069700706Q718.6326043246905 416.9913146803871 722.312258095492 425.973998885579Q726.01896814402 434.9296268130445 729.725678192548 444.1828737955012Q733.432388241076 453.4361207779579 737.2202671227834 462.7705365935941Q741.0352022822173 472.13200868695674 744.9313062748307 481.68287472440477L744.9313062748307 481.68287472440477L735.7592281255534 471.1579826888034L749.0168042115293 471.1579826888034L739.6553321181667 481.68287472440477Q743.7408300548655 472.13200868695674 747.7451591583848 462.202354761338Q751.749488261904 452.2727008357192 755.6455922545174 442.6136096873653Q759.5416962471307 432.9815748167378 763.3295751288382 423.4307087792898Q767.1174540105457 413.87984274184174 770.8241640590736 404.8159897034704Q774.5308741076016 395.77919294282555 778.0481902120442 387.39174684761616L778.0481902120442 387.39174684761616Q780.9702682065042 387.39174684761616 785.6239479754591 387.39174684761616Q790.3046840221403 387.39174684761616 794.9854200688218 387.39174684761616Q799.6661561155031 387.39174684761616 802.1823899440659 387.39174684761616L802.1823899440659 387.39174684761616Q802.7776280540485 387.39174684761616 803.264641053125 387.6893659026075Q803.7516540522018 387.9869849575988 804.0492731071931 388.3657728457695Q804.3468921621844 388.74456073394026 804.3468921621844 389.52919278800823L804.3468921621844 389.52919278800823Q804.3468921621844 394.0205348906042 804.3468921621844 401.6233489317455Q804.3468921621844 409.19910669516037 804.3468921621844 418.85819784351435Q804.3468921621844 428.4902327141418 804.3468921621844 439.39391263791396Q804.3468921621844 450.32464883941253 804.3468921621844 461.52594781817595Q804.3468921621844 472.7272467969393 804.3468921621844 483.63092672071144Q804.3468921621844 494.5346066444836 804.3468921621844 504.0854726819316L804.3468921621844 504.0854726819316Q804.3468921621844 507.3863385645624 804.3468921621844 510.60603561401365Q804.3468921621844 513.825732663465 804.3468921621844 517.1265985460957Q804.3468921621844 520.454520706453 804.3468921621844 523.7553865890837L804.3468921621844 523.7553865890837Q800.0449440036738 523.7553865890837 796.067671177881 523.7553865890837Q792.0633420743617 523.7553865890837 788.7624761917309 523.7553865890837L788.7624761917309 523.7553865890837Q788.1672380817483 523.7553865890837 787.6802250826717 523.4577675340925Q787.1932120835951 523.1601484791012 786.8955930286037 522.6731354800245Q786.5979739736124 522.1861224809478 786.5979739736124 521.6179406486917L786.5979739736124 521.6179406486917Q786.5979739736124 517.1265985460957 786.5979739736124 512.5540876103204Q786.5979739736124 507.98157667454495 786.5979739736124 503.490234571949Q786.5979739736124 499.0259487470795 786.5979739736124 494.5346066444836L786.5979739736124 494.5346066444836Q786.5979739736124 487.9058186014955 786.5979739736124 481.3852556694135Q786.5979739736124 474.8646927373314 786.8144241954243 468.2359046943434Q787.0038181395097 461.60711665135534 787.1932120835951 454.70776583110256Q787.3826060276804 447.7813587331233 787.7884501935777 440.36793863606727Q788.1672380817483 432.9815748167378 788.654251080825 424.7835226656139Q789.1412640799017 416.6125267922164 789.7365021898843 407.8462928088363L789.7365021898843 407.8462928088363L793.6326061824976 413.0952106877738L780.564424040607 413.0952106877738L788.1672380817483 406.87226681068296Q784.4605280332204 415.8278947381484 780.3750300965216 425.37876077559645Q776.2895321598229 434.9296268130445 772.2040342231242 444.7510556277573Q768.091480008699 454.5995407201966 764.1142071829062 464.15040675764465Q760.1098780793869 473.7012727950927 756.4031680308589 482.54867561165213Q752.7235142600574 491.4231347059382 749.3955920997001 499.2153426911649L749.3955920997001 499.2153426911649Q746.0947262170694 499.2153426911649 742.8750291676181 499.2153426911649Q739.6553321181667 499.2153426911649 736.354466235536 499.2153426911649L736.354466235536 499.2153426911649Q735.7592281255534 499.2153426911649 735.1910462932973 498.9177236361736Q734.5958081833147 498.6201045811823 734.0005700733321 497.45668463894356L734.0005700733321 497.45668463894356Q731.86312413294 492.20776676000617 728.5622582503092 484.30733366387346Q725.2343360899521 476.4069005677409 721.3382320973386 466.88309080801935Q717.4421281047254 457.33222477057126 713.2754613348471 447.1049517899612Q709.0817382872425 436.87767880935115 704.7797901287319 426.83979977282644Q700.5048982479478 416.8019207363018 696.7981881994198 407.656898864751L696.7981881994198 407.656898864751L704.2116082964758 413.0952106877738L691.5492703204824 413.0952106877738L694.6607422590278 407.2510546988537Q695.4453743130957 416.23373890404565 696.0135561453518 424.4047347774431Q696.6087942553344 432.57573065084057 696.9875821435052 439.98915074789653Q697.3934263094023 447.4025708449525 697.5828202534877 454.4101467761113Q697.7722141975731 461.41772270727 697.8804393084791 468.12767958343744Q697.9616081416585 474.8646927373314 698.0698332525644 481.3852556694135Q698.1780583634703 487.9058186014955 698.1780583634703 494.5346066444836L698.1780583634703 494.5346066444836Q698.1780583634703 501.7315765197277 698.1780583634703 509.0367715058777Q698.1780583634703 516.3419664920277 698.1780583634703 523.7553865890837ZM885.1910500089116 527.6514905816971L885.1910500089116 527.6514905816971Q872.3122618111063 527.6514905816971 862.572001829573 524.1341744772544Q852.8317418480395 520.6439146505384 846.230010082778 513.9069014966444Q839.6012220397901 507.196944620477 836.2732998794328 497.5649097498495Q832.972433996802 487.9058186014955 832.972433996802 475.64932479139935L832.972433996802 475.64932479139935L832.972433996802 434.7402328689591Q832.972433996802 422.83547066930714 836.2732998794328 413.501054853671Q839.6012220397901 404.1395827603083 846.230010082778 397.4296258841409Q852.8317418480395 390.69261273024694 862.3826078854876 387.0941277926249Q871.9334739229356 383.4956428550028 884.0005737889463 383.4956428550028L884.0005737889463 383.4956428550028Q893.7408337704798 383.4956428550028 901.3436478116212 385.25430090722415Q908.9464618527625 387.0129589594455 914.3036048426059 390.0162057870849Q919.6607478324491 393.04650889245084 922.96161371508 396.3473747750816L922.96161371508 396.3473747750816Q923.3674578809772 396.536768719167 923.5568518250626 397.02378171824364Q923.746245769148 397.5107947173203 923.8544708800539 397.997807716397Q923.9356397132334 398.4848207154737 923.9356397132334 398.8906648813709L923.9356397132334 398.8906648813709Q923.9356397132334 405.89824081252965 923.9356397132334 414.0692366859271Q923.9356397132334 422.26728883705107 923.9356397132334 429.65365265638053L923.9356397132334 429.65365265638053Q920.2559859424318 429.65365265638053 916.5492758939039 429.65365265638053Q912.8425658453758 429.65365265638053 909.1358557968479 429.65365265638053L909.1358557968479 429.65365265638053Q908.1618297986945 429.65365265638053 907.5936479664384 429.0854708241244Q906.9984098564559 428.4902327141418 906.9984098564559 427.51620671598846L906.9984098564559 427.51620671598846Q906.9984098564559 423.4307087792898 906.9984098564559 419.1558168985057Q906.9984098564559 414.85386873999505 906.9984098564559 410.17313269331373Q906.9984098564559 405.51945292435886 906.9984098564559 400.05408482360957L906.9984098564559 400.05408482360957L911.8685398472225 409.19910669516037Q905.8349899142171 404.3289767043937 899.2062018712292 402.38092470808704Q892.5774138282411 400.43287271178036 883.8111798448609 400.43287271178036L883.8111798448609 400.43287271178036Q873.8815259192423 400.43287271178036 866.6845560439981 404.3289767043937Q859.4605298910275 408.22508069700706 855.5644258984141 415.9361198490543Q851.6683219058008 423.6201027233751 851.6683219058008 435.4978086453006L851.6683219058008 435.4978086453006L851.6683219058008 474.0800606832634Q851.6683219058008 483.4415327766261 853.9139929570988 490.6385026518702Q856.1596640083968 497.83547252711435 861.0297939991635 502.92205273969284L861.0297939991635 502.92205273969284Q865.3046858799476 507.196944620477 871.5546860347648 509.0367715058777Q877.7776299118556 510.90365466900494 885.1910500089116 510.90365466900494L885.1910500089116 510.90365466900494Q896.2841238767691 510.90365466900494 904.5633448610724 507.873351563639Q912.8425658453758 504.8701047359995 921.4194058846705 498.4307106370969L921.4194058846705 498.4307106370969L924.530877823216 498.4307106370969Q924.530877823216 500.3787626334036 924.530877823216 502.2185895188044Q924.530877823216 504.0854726819316 924.530877823216 505.8441307341529Q924.530877823216 507.57573250864766 924.530877823216 509.334390560869Q924.530877823216 511.09304861309033 924.530877823216 512.8517066653117L924.530877823216 512.8517066653117Q924.530877823216 513.6363387193796 924.2332587682246 514.2045205516357Q923.9356397132334 514.7997586616183 923.5568518250626 515.1785465497891L923.5568518250626 515.1785465497891Q919.8501417765345 518.885256598317 914.1953797317 521.6179406486917Q908.5676739645918 524.3506246990663 901.1542538675358 526.0010576403818Q893.7408337704798 527.6514905816971 885.1910500089116 527.6514905816971ZM993.4973297480177 467.6406665843608L1009.0817457184711 460.2543027650313Q1014.7365077633058 470.5627445788208 1019.9854256422433 480.4112296712601Q1025.2343435211806 490.25971476369944 1030.69971162193 500.56815657748893L1030.69971162193 500.56815657748893Q1033.0265515064075 504.46426057010234 1035.0828286136198 505.92529956733233Q1037.1391057208325 507.3863385645624 1040.250577659378 507.3863385645624L1040.250577659378 507.3863385645624Q1041.4139976016168 507.3863385645624 1042.0904045447787 507.3863385645624Q1042.7668114879407 507.3863385645624 1043.5514435420087 507.3863385645624L1043.5514435420087 507.3863385645624L1046.2841275923834 507.3863385645624Q1046.2841275923834 511.2824425571757 1046.2841275923834 514.502139606627Q1046.2841275923834 517.7218366560784 1046.2841275923834 521.6179406486917L1046.2841275923834 521.6179406486917Q1046.2841275923834 522.5919666468451 1045.688889482401 523.1601484791012Q1045.1207076501446 523.7553865890837 1044.1466816519915 523.7553865890837L1044.1466816519915 523.7553865890837Q1042.7668114879407 523.7553865890837 1040.92698460254 523.7553865890837Q1039.0871577171392 523.7553865890837 1037.5178936090033 523.7553865890837L1037.5178936090033 523.7553865890837Q1032.0525255082543 523.7553865890837 1028.0752526824613 522.4025727027597Q1024.0709235789418 521.0227025387092 1021.0676767513025 518.1006245442491Q1018.0373736459366 515.1785465497891 1015.3046895955619 510.11902261493697L1015.3046895955619 510.11902261493697Q1009.8663777725391 499.4047366352503 1004.4010096717898 488.79867576646944Q998.9356415710405 478.16555861996216 993.4973297480177 467.6406665843608L993.4973297480177 467.6406665843608ZM943.0373717881293 387.39174684761616L943.0373717881293 387.39174684761616Q956.6737357622761 387.39174684761616 970.4994936805083 387.39174684761616Q984.3252515987404 387.39174684761616 997.9616155728871 387.39174684761616L997.9616155728871 387.39174684761616Q1008.4865076084885 387.39174684761616 1016.2787155937152 390.0162057870849Q1024.0709235789418 392.6406647265536 1029.130447513794 397.5107947173203Q1034.2170277263726 402.38092470808704 1036.6520927217562 409.41555691697226Q1039.0871577171392 416.423132848131 1039.0871577171392 425.18936683151105L1039.0871577171392 425.18936683151105L1039.0871577171392 434.7402328689591Q1039.0871577171392 443.1006226864419 1036.4356424999442 450.02702978442125Q1033.8111835604755 456.926380604674 1028.7516596256232 461.7153417622613Q1023.6921356907711 466.47724664212205 1016.4681095378006 469.02053674841136Q1009.2711396625565 471.53677057697416 1000.1261177910056 471.53677057697416L1000.1261177910056 471.53677057697416Q992.9020916380351 471.53677057697416 985.596896651885 471.53677057697416Q978.291701665735 471.53677057697416 970.9053378464056 471.53677057697416L970.9053378464056 471.53677057697416L968.740835628287 472.9166407410247L968.740835628287 455.57356671835Q976.154255725343 455.57356671835 983.459450711493 455.57356671835Q990.764645697643 455.57356671835 998.178065794699 455.57356671835L998.178065794699 455.57356671835Q1005.7538235581138 455.57356671835 1010.7321786597864 453.2467268338726Q1015.710533761459 450.89283067166866 1018.226767590022 446.13092579180784Q1020.7700576963113 441.34196463422063 1020.7700576963113 434.3343887030619L1020.7700576963113 434.3343887030619L1020.7700576963113 424.9999728874257Q1020.7700576963113 419.91339267484716 1019.3901875322607 415.9361198490543Q1018.0373736459366 411.93179074553507 1015.3046895955619 409.41555691697226L1015.3046895955619 409.41555691697226Q1012.7884557669992 406.6828728665976 1008.4865076084885 405.2218338693676Q1004.2116157277044 403.7607948721376 998.178065794699 403.7607948721376L998.178065794699 403.7607948721376Q989.4118318113188 403.7607948721376 980.537372717033 403.7607948721376Q971.6629136227469 403.7607948721376 962.8966796393669 403.7607948721376Q954.1304456559868 403.7607948721376 945.1748177285214 403.7607948721376L945.1748177285214 403.7607948721376Q944.2007917303681 403.7607948721376 943.632609898112 403.165556762155Q943.0373717881293 402.5973749298989 943.0373717881293 401.6233489317455L943.0373717881293 401.6233489317455Q943.0373717881293 397.91663888321756 943.0373717881293 394.5075478896809Q943.0373717881293 391.09845689614417 943.0373717881293 387.39174684761616ZM972.8533898427121 523.7553865890837L972.8533898427121 523.7553865890837Q968.740835628287 523.7553865890837 964.8447316356736 523.7553865890837Q960.9486276430601 523.7553865890837 956.8631297063615 523.7553865890837L956.8631297063615 523.7553865890837Q955.8891037082082 523.7553865890837 955.320921875952 523.1601484791012Q954.7256837659694 522.5919666468451 954.7256837659694 521.6179406486917L954.7256837659694 521.6179406486917Q954.7256837659694 505.62768051234104 954.7256837659694 490.0432645418876Q954.7256837659694 474.45884857143415 954.7256837659694 458.98265771188665Q954.7256837659694 443.50646685233914 954.7256837659694 427.9220508818857Q954.7256837659694 412.33763491143225 954.7256837659694 396.536768719167L954.7256837659694 396.536768719167L975.1802297271896 396.536768719167L972.8533898427121 400.05408482360957Q972.8533898427121 409.009712751075 972.8533898427121 417.88417184536104Q972.8533898427121 426.7315746619205 972.8533898427121 435.4978086453006L972.8533898427121 435.4978086453006Q972.8533898427121 446.9967266790553 972.8533898427121 458.1980256578187Q972.8533898427121 469.3993246365821 972.8533898427121 480.79001755943085Q972.8533898427121 492.20776676000617 972.8533898427121 504.46426057010234L972.8533898427121 504.46426057010234Q972.8533898427121 509.5237845049544 972.8533898427121 514.3939144957211Q972.8533898427121 519.2640444864878 972.8533898427121 523.7553865890837ZM1116.2246055153387 383.87443074317355L1116.2246055153387 383.87443074317355Q1129.4551253235882 383.87443074317355 1139.1953853051214 386.90473384853954Q1148.935645286655 389.93503695390547 1153.616381333336 394.8051669446722L1153.616381333336 394.8051669446722Q1154.5904073314896 395.56274272101365 1154.8880263864808 396.3473747750816Q1155.185645441472 397.1320068291496 1155.185645441472 398.10603282730295L1155.185645441472 398.10603282730295Q1155.185645441472 402.0021368199163 1155.185645441472 406.2770287007004Q1155.185645441472 410.57897685921097 1155.185645441472 414.962093850901Q1155.185645441472 419.34521084259103 1155.185645441472 423.4307087792898L1155.185645441472 423.4307087792898Q1151.478935392944 423.4307087792898 1147.6910565112366 423.4307087792898Q1143.8761213518028 423.4307087792898 1139.9800173591893 423.4307087792898L1139.9800173591893 423.4307087792898Q1139.0059913610362 423.4307087792898 1138.4378095287798 422.83547066930714Q1137.8425714187974 422.26728883705107 1137.8425714187974 421.2932628388977L1137.8425714187974 421.2932628388977Q1137.8425714187974 418.7499727326084 1137.8425714187974 416.1255137931397Q1137.8425714187974 413.501054853671 1137.8425714187974 410.76837080329636Q1137.8425714187974 408.03568675292166 1137.8425714187974 405.1136087584617Q1137.8425714187974 402.19153076400164 1137.8425714187974 399.08005882545626L1137.8425714187974 399.08005882545626L1143.3079395195468 407.656898864751Q1138.6272034728654 403.9501888162229 1131.9984154298772 402.1103619308222Q1125.3696273868895 400.24347876769497 1116.2246055153387 400.24347876769497L1116.2246055153387 400.24347876769497Q1109.406423528265 400.24347876769497 1104.1304493716011 401.6233489317455Q1098.8815314926637 402.9761628180696 1095.0936526109563 405.60062175753836Q1091.2787174515224 408.22508069700706 1089.3306654552157 412.1211846896204Q1087.382613458909 416.0172886822338 1087.382613458909 420.88741867300047L1087.382613458909 420.88741867300047L1087.382613458909 424.7835226656139Q1087.382613458909 429.87010287819237 1089.0330464002245 433.5497566489939Q1090.7105356192665 437.2564666975219 1094.9854275000503 439.98915074789653Q1099.2603193808345 442.7218347982712 1107.268977587873 445.0486746827486L1107.268977587873 445.0486746827486L1125.9648654968719 450.51404278349787Q1134.920493424337 453.2467268338726 1141.143437301428 456.249973661512Q1147.3934374562455 459.28027676687793 1151.1001475047733 463.0681556485854Q1154.7798012755748 466.88309080801935 1156.4572904946167 471.83438963196545Q1158.1077234359323 476.81274473363806 1158.1077234359323 483.63092672071144L1158.1077234359323 483.63092672071144L1158.1077234359323 491.0172905400409Q1158.1077234359323 501.94802674153954 1152.5611865020032 510.11902261493697Q1146.9875932903483 518.2900184883345 1136.3815324215675 522.7813605909304Q1125.7754715527867 527.2727026935263 1110.7592374145893 527.2727026935263L1110.7592374145893 527.2727026935263Q1101.2083713771412 527.2727026935263 1092.929150392838 525.8116636962964Q1084.6499294085343 524.3506246990663 1078.5352106423497 521.8073345927771Q1072.3934355984384 519.2640444864878 1068.8761194939957 515.963178603857L1068.8761194939957 515.963178603857Q1068.0914874399277 515.1785465497891 1067.902093495842 514.502139606627Q1067.712699551757 513.825732663465 1067.712699551757 512.6623127212263L1067.712699551757 512.6623127212263Q1067.712699551757 510.30841655902236 1067.712699551757 507.98157667454495Q1067.712699551757 505.62768051234104 1067.712699551757 503.1926155169577Q1067.712699551757 500.75755052157433 1067.712699551757 498.2413166930115L1067.712699551757 498.2413166930115L1070.6347775462168 498.2413166930115Q1079.4010115295969 505.0594986800849 1088.843652456139 507.98157667454495Q1098.286293382681 510.90365466900494 1111.5438694686572 510.90365466900494L1111.5438694686572 510.90365466900494Q1125.5590213309747 510.90365466900494 1132.9724414280308 505.43828656825565Q1140.3858615250865 499.99997474523286 1140.3858615250865 490.6385026518702L1140.3858615250865 490.6385026518702L1140.3858615250865 485.3895847729327Q1140.3858615250865 480.519454782166 1138.7083723060446 477.29975773271474Q1137.0579393647295 474.0800606832634 1132.6748223730392 471.53677057697416Q1128.2917053813494 469.02053674841136 1120.1207095079517 466.66664058620745L1120.1207095079517 466.66664058620745L1101.2083713771412 461.03893481909927Q1092.0633495055904 458.3062507687246 1086.029799572585 454.8971597751879Q1079.9962496395797 451.48806878165124 1076.370708424231 447.2943457340466Q1072.7722234866092 443.1006226864419 1071.2300156561996 438.14932386249575Q1069.6607515480637 433.17096876082314 1069.6607515480637 426.9480248837324L1069.6607515480637 426.9480248837324L1069.6607515480637 419.53460478667637Q1069.6607515480637 411.55300285736433 1073.0698425416003 405.1136087584617Q1076.478933535137 398.7012709372855 1082.6207085790484 393.91230977969826Q1088.7624836229597 389.1504048998375 1097.3122673845278 386.5259459603688Q1105.8891074238227 383.87443074317355 1116.2246055153387 383.87443074317355ZM1245.3642191038352 387.39174684761616L1245.3642191038352 387.39174684761616Q1249.4767733182607 387.39174684761616 1253.5622712549593 387.39174684761616Q1257.647769191658 387.39174684761616 1261.733267128357 387.39174684761616L1261.733267128357 387.39174684761616Q1262.7072931265102 387.39174684761616 1263.302531236493 387.9869849575988Q1263.870713068749 388.5551667898549 1263.870713068749 389.52919278800823L1263.870713068749 389.52919278800823Q1263.870713068749 406.2770287007004 1263.870713068749 423.05192089111904Q1263.870713068749 439.79975680381114 1263.870713068749 456.65581782740924Q1263.870713068749 473.48482257328084 1263.870713068749 490.25971476369944Q1263.870713068749 507.0075506763916 1263.870713068749 523.7553865890837L1263.870713068749 523.7553865890837Q1259.7852151320503 523.7553865890837 1255.6997171953517 523.7553865890837Q1251.6142192586526 523.7553865890837 1247.528721321954 523.7553865890837L1247.528721321954 523.7553865890837Q1246.9334832119716 523.7553865890837 1246.4464702128948 523.4577675340925Q1245.959457213818 523.1601484791012 1245.6618381588269 522.6731354800245Q1245.3642191038352 522.1861224809478 1245.3642191038352 521.6179406486917L1245.3642191038352 521.6179406486917Q1245.3642191038352 502.705602517881 1245.3642191038352 483.63092672071144Q1245.3642191038352 464.5291946458154 1245.3642191038352 445.4545188486458Q1245.3642191038352 426.35278677374976 1245.3642191038352 407.2510546988537L1245.3642191038352 407.2510546988537Q1245.3642191038352 402.19153076400164 1245.3642191038352 397.321400773235Q1245.3642191038352 392.45127078246827 1245.3642191038352 387.39174684761616ZM1254.725691197198 461.03893481909927L1254.725691197198 446.8073327349699L1313.1672510863987 446.8073327349699Q1315.4940909708757 446.8073327349699 1317.7397620221736 446.8073327349699Q1319.985433073472 446.8073327349699 1322.122879013864 446.8073327349699L1322.122879013864 446.8073327349699L1327.5882471146133 444.85928073866324L1330.320931164988 463.1763807594913L1256.86313713759 463.1763807594913Q1256.4843492494192 463.1763807594913 1256.078505083522 462.98698681540594Q1255.6997171953517 462.7705365935941 1255.40209814036 462.49997381632926Q1255.104479085369 462.202354761338 1254.9150851412833 461.79651059544074Q1254.725691197198 461.41772270727 1254.725691197198 461.03893481909927L1254.725691197198 461.03893481909927ZM1340.0611911465212 523.7553865890837L1340.0611911465212 523.7553865890837Q1335.9486369320957 523.7553865890837 1331.863138995397 523.7553865890837Q1327.7776410586985 523.7553865890837 1323.6921431219998 523.7553865890837L1323.6921431219998 523.7553865890837Q1323.096905012017 523.7553865890837 1322.6098920129407 523.4577675340925Q1322.122879013864 523.1601484791012 1321.8252599588727 522.6731354800245Q1321.554697181608 522.1861224809478 1321.554697181608 521.6179406486917L1321.554697181608 521.6179406486917Q1321.554697181608 504.8701047359995 1321.554697181608 488.0952125455809Q1321.554697181608 471.34737663288877 1321.554697181608 454.4913156092907Q1321.554697181608 437.6623108634191 1321.554697181608 420.88741867300047Q1321.554697181608 404.1395827603083 1321.554697181608 387.39174684761616L1321.554697181608 387.39174684761616Q1325.6401951183066 387.39174684761616 1329.7256930550052 387.39174684761616Q1333.8111909917038 387.39174684761616 1337.8966889284025 387.39174684761616L1337.8966889284025 387.39174684761616Q1338.3025330943 387.39174684761616 1338.6813209824704 387.58114079170156Q1339.087165148368 387.77053473578695 1339.3577279256328 388.06815379077824Q1339.655346980624 388.3657728457695 1339.8447409247092 388.74456073394026Q1340.0611911465212 389.1504048998375 1340.0611911465212 389.52919278800823L1340.0611911465212 389.52919278800823Q1340.0611911465212 403.57140092805224 1340.0611911465212 417.9653406785405Q1340.0611911465212 432.3863367067552 1340.0611911465212 446.6179387908845Q1340.0611911465212 460.8224845972874 1340.0611911465212 475.0540866814168Q1340.0611911465212 489.2856887655461 1340.0611911465212 503.490234571949L1340.0611911465212 503.490234571949Q1340.0611911465212 508.7662087286129 1340.0611911465212 513.825732663465Q1340.0611911465212 518.885256598317 1340.0611911465212 523.7553865890837ZM1414.4659548943455 417.9653406785405L1414.4659548943455 417.9653406785405Q1424.3956088199643 417.9653406785405 1432.5936609710884 421.1850377279918Q1440.7646568444857 424.4047347774431 1446.7170379443119 430.05949682227777Q1452.6423627664112 435.71425886711245 1455.7538347049567 443.50646685233914Q1458.8923629212286 451.29867483756584 1458.8923629212286 460.63309065320203L1458.8923629212286 460.63309065320203L1458.8923629212286 482.25105655666084Q1458.8923629212286 495.12984475446615 1453.129375765488 504.95127356917897Q1447.3934448874738 514.7997586616183 1437.2473407400435 520.3462955955471Q1427.128292870339 525.8928325294758 1414.4659548943455 525.8928325294758L1414.4659548943455 525.8928325294758Q1404.5363009687267 525.8928325294758 1396.338248817603 522.7813605909304Q1388.1672529442058 519.669888652385 1382.2148718443796 513.9069014966444Q1376.2895470222802 508.17097061863035 1373.1780750837347 500.3787626334036Q1370.0395468674628 492.5865546481769 1370.0395468674628 483.2250825548142L1370.0395468674628 483.2250825548142L1370.0395468674628 461.60711665135534Q1370.0395468674628 448.5659907871912 1375.8025340232034 438.8257308056578Q1381.5384649012176 429.0854708241244 1391.684569048648 423.53893389019566Q1401.8036169183524 417.9653406785405 1414.4659548943455 417.9653406785405ZM1415.439980892499 434.3343887030619L1415.439980892499 434.3343887030619Q1406.4843529650338 434.3343887030619 1400.3425779211225 438.04109875158986Q1394.2008028772111 441.7478088001178 1390.9811058277596 447.9707526772086Q1387.788465056035 454.2207528320259 1387.788465056035 462.202354761338L1387.788465056035 462.202354761338L1387.788465056035 481.8722686684901Q1387.788465056035 488.31166276739276 1389.8176858855209 493.4523555354243Q1391.8739629927336 498.6201045811823 1395.3642228194494 502.32681462971027L1395.3642228194494 502.32681462971027Q1398.692144979807 505.62768051234104 1403.2646559155824 507.57573250864766Q1407.8371668513578 509.5237845049544 1413.4919288961923 509.5237845049544L1413.4919288961923 509.5237845049544Q1422.4475568236576 509.5237845049544 1428.5893318675694 505.73590562324694Q1434.7311069114803 501.94802674153954 1437.9508039609318 495.6980265867223Q1441.1434447326565 489.47508270963147 1441.1434447326565 481.68287472440477L1441.1434447326565 481.68287472440477L1441.1434447326565 462.01296081725263Q1441.1434447326565 455.1947788301792 1439.3036178472557 449.9188046735153Q1437.463790961855 444.66988679457785 1433.7570809133272 441.15257069013524L1433.7570809133272 441.15257069013524Q1430.6456089747817 437.85170480750446 1425.9648729281002 436.0930467552832Q1421.2841368814193 434.3343887030619 1415.439980892499 434.3343887030619ZM1522.9616285775373 508.3603645627157L1522.9616285775373 508.3603645627157Q1537.0038367175812 508.3603645627157 1543.0373866505865 504.27486662601694Q1549.070936583592 500.1893686893182 1549.070936583592 493.7499745904156L1549.070936583592 493.7499745904156Q1549.070936583592 490.25971476369944 1547.5287287531823 487.60819954650424Q1545.9594646450464 484.98374060703554 1542.3609797074246 483.14391372163476Q1538.7624947698023 481.27703055850753 1532.7018885590705 480.11361061626883L1532.7018885590705 480.11361061626883L1513.4378188178157 476.2175066236555Q1503.8869527803677 474.2694546273488 1497.7451777364563 470.6709696897267Q1491.603402692545 467.0724847521047 1488.7895498089906 461.79651059544074Q1485.9486406477104 456.5475927165033 1485.9486406477104 449.54001678534456L1485.9486406477104 449.54001678534456Q1485.9486406477104 442.7218347982712 1488.7895498089906 437.0670727534365Q1491.603402692545 431.4123107086018 1497.2581647373795 427.2185876609972Q1502.912926782214 423.05192089111904 1511.273316599697 420.69802472891513Q1519.6607626949062 418.37118484443766 1530.7538365627638 418.37118484443766L1530.7538365627638 418.37118484443766Q1537.7884687716491 418.37118484443766 1543.2267805946722 419.04759178759974Q1548.692148695421 419.72399873076176 1552.7776466321202 420.806249839821Q1556.8631445688188 421.86144467115383 1559.406434675108 423.05192089111904L1559.406434675108 423.05192089111904Q1560.5698546173467 423.4307087792898 1561.0568676164235 423.8094966674605Q1561.5438806155003 424.21534083335774 1561.6521057264063 424.7835226656139Q1561.7332745595854 425.37876077559645 1561.7332745595854 426.54218071783515L1561.7332745595854 426.54218071783515Q1561.7332745595854 429.4642587122952 1561.7332745595854 433.17096876082314Q1561.7332745595854 436.87767880935115 1561.7332745595854 440.36793863606727L1561.7332745595854 440.36793863606727L1558.8111965651256 440.36793863606727Q1554.1304605184441 438.63633686157243 1549.5579495826687 437.5540857525132Q1544.9854386468933 436.4718346434539 1539.925914712041 435.98482164437723Q1534.8663907771893 435.4978086453006 1528.4269966782863 435.4978086453006L1528.4269966782863 435.4978086453006Q1519.6607626949062 435.4978086453006 1514.1953945941573 437.36469180842784Q1508.7570827711343 439.20451869382856 1506.2137926648452 442.2348217991945Q1503.6975588362825 445.238068626834 1503.6975588362825 448.94477867536193L1503.6975588362825 448.94477867536193Q1503.6975588362825 452.2727008357192 1505.0503727226064 454.4913156092907Q1506.4031866089304 456.7369866605887 1510.028727824279 458.38741960190407Q1513.6272127619013 460.0649088209459 1520.256000804889 461.41772270727L1520.256000804889 461.41772270727L1539.5200705461439 465.31382669988335Q1548.0969105854388 467.0724847521047 1554.1304605184441 470.77919480063264Q1560.1910667291759 474.45884857143415 1563.383707500901 480.11361061626883Q1566.603404550352 485.7683726611035 1566.603404550352 493.7499745904156L1566.603404550352 493.7499745904156Q1566.603404550352 503.30084062786364 1561.4356555045938 510.49781050310776Q1556.2949627365624 517.7218366560784 1546.5547027550292 521.6179406486917Q1536.8144427734956 525.5140446413051 1523.178078799349 525.5140446413051L1523.178078799349 525.5140446413051Q1516.1434465904636 525.5140446413051 1510.2181217683642 524.837637698143Q1504.2657406685385 524.1341744772544 1499.3144418445922 522.9707545350158Q1494.3360867429196 521.8073345927771 1490.5482078612122 520.1569016514617Q1486.7332727017783 518.5064687101462 1484.0005886514036 516.747810657925L1484.0005886514036 516.747810657925Q1483.243012875062 516.1525725479424 1483.0265626532505 515.7737846597716Q1482.8371687091649 515.3679404938745 1482.8371687091649 514.3939144957211L1482.8371687091649 514.3939144957211Q1482.8371687091649 511.09304861309033 1482.8371687091649 506.8181567323062Q1482.8371687091649 502.51620857379567 1482.8371687091649 498.80949852526766L1482.8371687091649 498.80949852526766L1485.7592467036252 498.80949852526766Q1489.8447446403238 501.5421825756423 1493.9572988547488 503.30084062786364Q1498.0427967914475 505.0594986800849 1502.507082616317 506.2229186223236Q1506.9984247189132 507.3863385645624 1511.9767798205858 507.873351563639Q1516.928078644532 508.3603645627157 1522.9616285775373 508.3603645627157ZM1583.161846518959 420.129842896659L1583.161846518959 420.129842896659L1656.6196405463565 420.129842896659Q1657.5936665445101 420.129842896659 1658.161848376766 420.69802472891513Q1658.757086486749 421.2932628388977 1658.757086486749 422.26728883705107L1658.757086486749 422.26728883705107Q1658.757086486749 424.7835226656139 1658.757086486749 427.1374188278177Q1658.757086486749 429.4642587122952 1658.757086486749 431.8181548744991Q1658.757086486749 434.1449947589765 1658.757086486749 436.87767880935115L1658.757086486749 436.87767880935115L1585.299292459351 436.87767880935115Q1584.9205045711801 436.87767880935115 1584.5417166830093 436.68828486526576Q1584.1358725171121 436.4718346434539 1583.838253462121 436.20127186618913Q1583.5676906848562 435.9036528111978 1583.3512404630442 435.4978086453006Q1583.161846518959 435.1190207571298 1583.161846518959 434.7402328689591L1583.161846518959 434.7402328689591Q1583.161846518959 432.00754881858444 1583.161846518959 429.65365265638053Q1583.161846518959 427.3268127719031 1583.161846518959 424.9999728874257Q1583.161846518959 422.6460767252218 1583.161846518959 420.129842896659ZM1656.2137963804594 506.8181567323062L1658.757086486749 506.8181567323062Q1658.757086486749 510.49781050310776 1658.757086486749 514.2045205516357Q1658.757086486749 517.9112306001637 1658.757086486749 521.6179406486917L1658.757086486749 521.6179406486917Q1658.757086486749 522.5919666468451 1658.270073487672 523.1601484791012Q1657.7830604885953 523.7553865890837 1656.6196405463565 523.7553865890837L1656.6196405463565 523.7553865890837Q1654.8609824941354 523.7553865890837 1652.9940993310079 523.7553865890837Q1651.1542724456071 523.7553865890837 1649.3144455602064 523.7553865890837Q1647.4475623970793 523.7553865890837 1645.6077355116786 523.7553865890837Q1643.7408523485515 523.7553865890837 1642.0092505740563 523.7553865890837L1642.0092505740563 523.7553865890837Q1632.4583845366083 523.7553865890837 1625.2343583836378 521.5097155377857Q1618.0373885083936 519.2640444864878 1612.9778645735419 514.502139606627Q1607.9183406386896 509.74023472676623 1605.3750505324 502.32681462971027Q1602.831760426111 494.9133945326543 1602.831760426111 484.4155587747794L1602.831760426111 484.4155587747794Q1602.831760426111 474.8646927373314 1602.831760426111 465.31382669988335Q1602.831760426111 455.7629606624353 1602.831760426111 446.21209462498734Q1602.831760426111 436.68828486526576 1602.831760426111 427.02919371691183Q1602.831760426111 417.39715884628436 1602.831760426111 407.8462928088363L1602.831760426111 407.8462928088363Q1602.831760426111 402.5973749298989 1602.831760426111 397.5107947173203Q1602.831760426111 392.45127078246827 1602.831760426111 387.39174684761616L1602.831760426111 387.39174684761616Q1606.944314640536 387.39174684761616 1610.8404186331495 387.39174684761616Q1614.736522625763 387.39174684761616 1618.6326266183764 387.39174684761616L1618.6326266183764 387.39174684761616Q1619.2008084506324 387.39174684761616 1619.6878214497092 387.6893659026075Q1620.174834448786 387.9869849575988 1620.4724535037772 388.4739979566754Q1620.7700725587683 388.9610109557521 1620.7700725587683 389.52919278800823L1620.7700725587683 389.52919278800823Q1620.7700725587683 401.21750476584833 1620.7700725587683 412.82464791050893Q1620.7700725587683 424.4047347774431 1620.7700725587683 436.0930467552832Q1620.7700725587683 447.7813587331233 1620.7700725587683 459.4696707109633Q1620.7700725587683 471.1579826888034 1620.7700725587683 482.8462946666435L1620.7700725587683 482.8462946666435Q1620.7700725587683 489.85387059780226 1622.1228864450923 494.5346066444836Q1623.502756609143 499.2153426911649 1626.424834603603 502.1374206856249L1626.424834603603 502.1374206856249Q1629.1304623762512 504.6536545141877 1633.1347914797707 505.73590562324694Q1637.1391205832897 506.8181567323062 1642.7668263503979 506.8181567323062L1642.7668263503979 506.8181567323062Q1645.1207225126018 506.8181567323062 1647.3663935638997 506.8181567323062Q1649.5850083374717 506.8181567323062 1651.74951055559 506.8181567323062Q1653.8869564959818 506.8181567323062 1656.2137963804594 506.8181567323062L1656.2137963804594 506.8181567323062ZM1730.6456164060105 417.9653406785405L1730.6456164060105 417.9653406785405Q1742.1174781620384 417.9653406785405 1751.6683441994865 422.75430183612775Q1761.2192102369345 427.51620671598846 1766.9551411149487 437.17529786434244Q1772.7181282706892 446.8073327349699 1772.7181282706892 461.79651059544074L1772.7181282706892 461.79651059544074L1772.7181282706892 476.0281126795701Q1772.7181282706892 476.6233507895527 1772.420509215698 477.1103637886294Q1772.1228901607064 477.597376787706 1771.744102272536 477.86793956497087Q1771.338258106639 478.16555861996216 1770.5806823302973 478.16555861996216L1770.5806823302973 478.16555861996216L1720.1207243704089 478.16555861996216Q1716.7928022100518 478.16555861996216 1713.4919363274212 478.16555861996216Q1710.19107044479 478.16555861996216 1707.0525422285182 478.16555861996216L1707.0525422285182 478.16555861996216L1701.2083862395984 478.16555861996216L1698.6921524110353 465.50322064396875L1755.1856603039291 465.50322064396875Q1755.1856603039291 464.5291946458154 1755.1856603039291 463.5551686476621Q1755.1856603039291 462.5811426495087 1755.1856603039291 461.60711665135534L1755.1856603039291 461.60711665135534Q1755.1856603039291 454.00430261021404 1753.535227362614 448.4577656762853Q1751.8577381435716 442.91122874235657 1748.3674783168558 439.39391263791396L1748.3674783168558 439.39391263791396Q1745.2560063783103 436.4718346434539 1740.7646642757145 435.0107956462239Q1736.2733221731187 433.5497566489939 1730.6456164060105 433.5497566489939L1730.6456164060105 433.5497566489939Q1717.983278430017 433.5497566489939 1711.1650964429436 440.2867698028878Q1704.3469144558703 446.9967266790553 1704.3469144558703 462.202354761338L1704.3469144558703 462.202354761338L1704.3469144558703 482.65690072255813Q1704.3469144558703 486.9317926033422 1705.104490232212 490.5302775409643Q1705.8891222862799 494.1558187563128 1707.3501612835098 497.0778967507728Q1708.8112002807397 499.99997474523286 1710.9486462211316 502.32681462971027L1710.9486462211316 502.32681462971027Q1714.844750213745 506.2229186223236 1721.1759192017416 508.06274550772434Q1727.5070881897386 509.9296286708516 1735.894534284948 509.9296286708516L1735.894534284948 509.9296286708516Q1742.9021102161064 509.9296286708516 1748.3674783168558 509.14499661678366Q1753.8057901398788 508.3603645627157 1758.5947512974658 506.60170651049435Q1763.3566561773264 504.8701047359995 1768.2267861680934 502.1374206856249L1768.2267861680934 502.1374206856249L1771.1488641625533 502.1374206856249Q1771.1488641625533 505.62768051234104 1771.1488641625533 509.14499661678366Q1771.1488641625533 512.6623127212263 1771.1488641625533 515.963178603857L1771.1488641625533 515.963178603857Q1771.1488641625533 516.3419664920277 1770.9594702184677 516.747810657925Q1770.7700762743825 517.1265985460957 1770.3642321084853 517.532442711993L1770.3642321084853 517.532442711993Q1768.0373922240078 519.8592825964704 1762.7884743450704 521.8073345927771Q1757.5125001884066 523.7553865890837 1750.5049242572477 524.837637698143Q1743.4973483260892 525.8928325294758 1735.7051403408623 525.8928325294758L1735.7051403408623 525.8928325294758Q1723.8274344189372 525.8928325294758 1714.4659623255743 523.0789796459217Q1705.104490232212 520.2380704846412 1698.989771466027 514.6915335507124Q1692.8479964221156 509.14499661678366 1689.73652448357 501.16339468747157Q1686.5979962672982 493.1817927581595 1686.5979962672982 482.65690072255813L1686.5979962672982 482.65690072255813L1686.5979962672982 462.3917487054233Q1686.5979962672982 451.082224615754 1690.0070872608349 442.7218347982712Q1693.4161782543715 434.3343887030619 1699.4767844651033 428.89607688003906Q1705.510334398109 423.4307087792898 1713.4919363274212 420.69802472891513Q1721.4735382567333 417.9653406785405 1730.6456164060105 417.9653406785405ZM1795.6889080604724 377.6514868660828L1795.6889080604724 377.6514868660828Q1797.2581721686083 377.6514868660828 1800.4778692180594 377.6514868660828Q1803.6975662675109 377.6514868660828 1807.4854451492183 377.6514868660828Q1811.2733240309258 377.6514868660828 1815.0882591903596 377.6514868660828Q1818.876138072067 377.6514868660828 1821.7170472333478 377.6514868660828Q1824.5309001169016 377.6514868660828 1825.8837140032256 377.6514868660828L1825.8837140032256 377.6514868660828Q1826.6683460572935 377.6514868660828 1827.0741902231907 377.9491059210741Q1827.4529781113615 378.2467249760654 1827.7505971663531 378.6255128642361Q1828.0482162213443 379.0043007524069 1828.0482162213443 379.78893280647486L1828.0482162213443 379.78893280647486Q1828.0482162213443 388.74456073394026 1828.0482162213443 400.43287271178036Q1828.0482162213443 412.1211846896204 1828.0482162213443 424.9999728874257Q1828.0482162213443 437.85170480750446 1828.0482162213443 450.8116618384892Q1828.0482162213443 463.7445625917474 1828.0482162213443 475.4328745695875Q1828.0482162213443 487.12118654742756 1828.0482162213443 496.1038707526195L1828.0482162213443 496.1038707526195Q1828.0482162213443 499.4047366352503 1828.427004109515 501.3527886315569Q1828.8057919976854 503.30084062786364 1830.1856621617367 504.6536545141877L1830.1856621617367 504.6536545141877Q1831.7278699921458 506.2229186223236 1833.9735410434437 506.60170651049435Q1836.2192120947416 507.0075506763916 1839.141290089202 507.0075506763916L1839.141290089202 507.0075506763916Q1840.4941039755258 507.0075506763916 1841.9551429727558 507.0075506763916Q1843.4161819699857 507.0075506763916 1844.2008140240537 507.0075506763916L1844.2008140240537 507.0075506763916L1846.338259964446 507.0075506763916Q1846.338259964446 510.30841655902236 1846.338259964446 514.2045205516357Q1846.338259964446 518.1006245442491 1846.338259964446 521.6179406486917L1846.338259964446 521.6179406486917Q1846.338259964446 522.4025727027597 1846.0676971871812 522.7813605909304Q1845.7700781321896 523.1601484791012 1845.3642339662924 523.4577675340925Q1844.9854460781216 523.7553865890837 1844.2008140240537 523.7553865890837L1844.2008140240537 523.7553865890837Q1843.4161819699857 523.7553865890837 1841.576355084585 523.7553865890837Q1839.7365281991842 523.7553865890837 1837.572025981066 523.7553865890837Q1835.4345800406736 523.7553865890837 1833.4865280443673 523.7553865890837L1833.4865280443673 523.7553865890837Q1827.6423720554471 523.7553865890837 1823.2592550637569 522.2943475918537Q1818.876138072067 520.8333085946238 1815.9540600776068 517.8030054892578Q1813.0319820831469 514.7997586616183 1811.570943085917 510.0107975040311Q1810.109904088687 505.24889262417025 1810.109904088687 499.0259487470795L1810.109904088687 499.0259487470795Q1810.109904088687 490.44910870778483 1810.109904088687 479.7348227280981Q1810.109904088687 469.02053674841136 1810.109904088687 457.22399965966537Q1810.109904088687 445.4545188486458 1810.109904088687 433.7662068708058Q1810.109904088687 422.0778948929657 1810.109904088687 411.6341716905438Q1810.109904088687 401.21750476584833 1810.109904088687 393.4252967806216L1810.109904088687 393.4252967806216L1808.5676962582775 393.4252967806216Q1807.7830642042095 393.4252967806216 1805.6456182638176 393.4252967806216Q1803.4811160456989 393.4252967806216 1801.2625012721273 393.4252967806216Q1799.0168302208294 393.4252967806216 1797.8534102785907 393.4252967806216L1797.8534102785907 393.4252967806216Q1796.8793842804375 393.4252967806216 1796.2841461704547 392.85711494836545Q1795.6889080604724 392.2618768383829 1795.6889080604724 391.2878508402295L1795.6889080604724 391.2878508402295Q1795.6889080604724 387.9869849575988 1795.6889080604724 384.57789396406207Q1795.6889080604724 381.1688029705254 1795.6889080604724 377.6514868660828Z " fill="white" transform="matrix(0.4739110056330218,0,0,0.4739110056330218,0,85.4834744948739)"/></g></svg>